<svg width="21" height="16" viewBox="0 0 21 16" fill="none" xmlns="http://www.w3.org/2000/svg">
<path d="M20.7071 0.707107C21.0976 0.316583 21.0976 -0.316583 20.7071 -0.707107L14.3431 -7.07107C13.9526 -7.46159 13.3195 -7.46159 12.9289 -7.07107C12.5384 -6.68054 12.5384 -6.04738 12.9289 -5.65685L18.5858 0L12.9289 5.65685C12.5384 6.04738 12.5384 6.68054 12.9289 7.07107C13.3195 7.46159 13.9526 7.46159 14.3431 7.07107L20.7071 0.707107ZM0 1H20V-1H0V1Z" transform="translate(0 8) scale(1 -1)" fill="black"/>
<path d="M20.7071 0.707107C21.0976 0.316583 21.0976 -0.316583 20.7071 -0.707107L14.3431 -7.07107C13.9526 -7.46159 13.3195 -7.46159 12.9289 -7.07107C12.5384 -6.68054 12.5384 -6.04738 12.9289 -5.65685L18.5858 0L12.9289 5.65685C12.5384 6.04738 12.5384 6.68054 12.9289 7.07107C13.3195 7.46159 13.9526 7.46159 14.3431 7.07107L20.7071 0.707107ZM0 1H20V-1H0V1Z" transform="translate(0 8) scale(1 -1)" fill="black"/>
</svg>
